<svg id="Layer_1" data-name="Layer 1" xmlns="http://www.w3.org/2000/svg" viewBox="0 0 300 300"><defs><style>.cls-1{fill:#1a0238;}</style></defs><path class="cls-1" d="M228.1,219.89a202.31,202.31,0,0,0-31.68-7.24c20.24-32.17,39.14-73.24,38.94-114.22C234.93,10.5,149,8,147,8S59.07,11.35,59.5,99.28c.19,41.05,19.55,82,40.14,114a195,195,0,0,0-27.74,6.6C48.43,227.54,36,238.18,36,250.68s12.41,23.13,35.88,30.78C92.85,288.28,120.59,292,150,292s57.15-3.76,78.1-10.58c23.47-7.65,35.88-18.29,35.88-30.78S251.57,227.54,228.1,219.89ZM147.43,70.36A38.54,38.54,0,1,1,108.9,108.9,38.54,38.54,0,0,1,147.43,70.36ZM224.2,269.5c-19.73,6.42-46.08,10-74.2,10s-54.47-3.54-74.2-10C55.72,263,48.6,255.27,48.6,250.68s7.12-12.29,27.2-18.83a191.11,191.11,0,0,1,31.56-7,393.12,393.12,0,0,0,40.92,49.91,393.4,393.4,0,0,0,40.52-50.44,197.72,197.72,0,0,1,35.4,7.57c20.08,6.54,27.2,14.23,27.2,18.83S244.28,263,224.2,269.5Z"/></svg>