<svg id="Layer_1" data-name="Layer 1" xmlns="http://www.w3.org/2000/svg" viewBox="0 0 300 300"><defs><style>.cls-1{fill:#fff;}</style></defs><circle class="cls-1" cx="149.74" cy="150.26" r="86.56"/><polygon class="cls-1" points="123.34 56.48 150.04 13.06 180.05 56.48 123.34 56.48"/><polygon class="cls-1" points="173.85 246.29 147.15 289.71 117.13 246.29 173.85 246.29"/><polygon class="cls-1" points="53.68 176.64 10.26 149.94 53.68 119.93 53.68 176.64"/><polygon class="cls-1" points="243.5 126.13 286.92 152.83 243.5 182.84 243.5 126.13"/><polygon class="cls-1" points="233.56 200.64 245.38 250.22 193.46 240.74 233.56 200.64"/><polygon class="cls-1" points="63.62 102.13 51.8 52.55 103.72 62.03 63.62 102.13"/><polygon class="cls-1" points="99.34 236.35 49.76 248.18 59.24 196.25 99.34 236.35"/><polygon class="cls-1" points="197.84 66.42 247.43 54.59 237.95 106.52 197.84 66.42"/></svg>