<svg id="Layer_1" data-name="Layer 1" xmlns="http://www.w3.org/2000/svg" viewBox="0 0 300 300"><defs><style>.cls-1{fill:#fff;}</style></defs><path class="cls-1" d="M188.57,137.12q-9.81-7-29.36-13.56l2.62-46.25q7.81,7.14,10.2,24.7l41.8-3.42C213.12,77.06,201.65,62,189.68,50.4a58.83,58.83,0,0,0-25.52-14.27L165.76,8H125.1l-.48,26.14A67.09,67.09,0,0,0,104,40.43,53.81,53.81,0,0,0,81.26,62.29,64.73,64.73,0,0,0,73,94.87a66.69,66.69,0,0,0,6.41,29,58.22,58.22,0,0,0,17.28,21.79q8.74,6.67,25.65,12.57l-1,53.88c-9.16-12.47-14.45-32.63-17-50.47l-46.66,19c4.24,42.65,28.61,71,62.79,78.91L120,291.52l30-5.44,1.4-24.72q29.58-2.48,44.7-19.16,17.73-19.62,17.73-48.43,0-19.92-6.49-33.87A57.23,57.23,0,0,0,188.57,137.12Zm-73.27-30.4a19.21,19.21,0,0,1-7.25-15.19q0-9.18,8-15.35a26.4,26.4,0,0,1,7.9-4.05l-.72,39.31A36.12,36.12,0,0,1,115.3,106.72Zm52.5,108.7a32,32,0,0,1-14.21,7.34l3-53.32a73.39,73.39,0,0,1,7.27,3A24.37,24.37,0,0,1,174,181.1a23.63,23.63,0,0,1,3.32,12.82A27.94,27.94,0,0,1,167.8,215.42Z"/></svg>